<?xml version="1.0" ?><!DOCTYPE svg  PUBLIC '-//W3C//DTD SVG 1.1//EN'  'http://www.w3.org/Graphics/SVG/1.1/DTD/svg11.dtd'><svg enable-background="new 0 0 91 91" height="91px" id="Layer_1" version="1.1" viewBox="0 0 91 91" width="91px" xml:space="preserve" xmlns="http://www.w3.org/2000/svg" xmlns:xlink="http://www.w3.org/1999/xlink"><g><g><path d="M48.229,13.925v75.942l41.984-11.451V2.474L48.229,13.925z" fill="#647F94"/><path d="M0.507,78.416l41.988,11.449v-75.94L0.507,2.476V78.416z" fill="#6EC4A7"/></g><g><path d="M57.331,23.484l23.07-6.222c1.531-0.415,3.104,0.492,3.514,2.021c0.414,1.527-0.492,3.101-2.02,3.514    l-23.066,6.223c-0.252,0.068-0.506,0.101-0.75,0.101c-1.262,0-2.42-0.843-2.766-2.122C54.901,25.47,55.806,23.897,57.331,23.484z     M57.331,40.235l23.07-6.216c1.531-0.413,3.104,0.494,3.514,2.022c0.414,1.529-0.492,3.101-2.02,3.514l-23.066,6.216    c-0.252,0.067-0.506,0.1-0.75,0.1c-1.262,0-2.42-0.843-2.766-2.122C54.901,42.221,55.806,40.648,57.331,40.235z M57.331,55.08    l23.07-6.221c1.531-0.416,3.104,0.492,3.514,2.021c0.414,1.527-0.492,3.1-2.02,3.514l-23.066,6.223    c-0.252,0.068-0.506,0.098-0.75,0.098c-1.262,0-2.42-0.84-2.766-2.119C54.901,57.066,55.806,55.494,57.331,55.08z M65.864,73.5    l-7.02,1.955c-0.254,0.072-0.512,0.105-0.77,0.105c-1.252,0-2.406-0.83-2.76-2.098c-0.424-1.525,0.471-3.105,1.994-3.531    l7.02-1.953c1.516-0.426,3.104,0.465,3.531,1.99C68.284,71.496,67.392,73.076,65.864,73.5z M81.886,69.24l-4.717,1.256    c-0.244,0.064-0.492,0.098-0.736,0.098c-1.27,0-2.426-0.85-2.77-2.131c-0.408-1.531,0.502-3.102,2.033-3.51l4.715-1.254    c1.521-0.404,3.1,0.504,3.508,2.033C84.329,67.262,83.415,68.832,81.886,69.24z" fill="#95AEC2"/><path d="M35.446,57.66c-0.344,1.285-1.5,2.133-2.77,2.133c-0.242,0-0.49-0.031-0.734-0.098L8.841,53.574    c-1.533-0.406-2.443-1.977-2.039-3.506c0.404-1.531,1.986-2.439,3.502-2.037l23.104,6.123    C34.94,54.559,35.851,56.129,35.446,57.66z M6.802,34.966c0.404-1.529,1.973-2.439,3.506-2.036l23.104,6.126    c1.529,0.405,2.439,1.975,2.035,3.505c-0.344,1.284-1.5,2.133-2.77,2.133c-0.242,0-0.49-0.032-0.736-0.097L8.837,38.471    C7.308,38.065,6.397,36.497,6.802,34.966z" fill="#647F94"/></g></g></svg>